<svg width="49" height="49" viewBox="0 0 49 49" fill="none" xmlns="http://www.w3.org/2000/svg">
<g clip-path="url(#clip0)">
<path d="M41.8241 7.17587C37.1967 2.54847 31.0441 0 24.5 0C17.9559 0 11.8033 2.54847 7.17587 7.17587C2.54847 11.8033 0 17.9559 0 24.5C0 31.0441 2.54847 37.1967 7.17587 41.8241C11.8033 46.4515 17.9559 49 24.5 49C31.0441 49 37.1967 46.4515 41.8241 41.8241C46.4515 37.1967 49 31.0441 49 24.5C49 17.9559 46.4515 11.8033 41.8241 7.17587ZM24.5 45.1719C13.1016 45.1719 3.82812 35.8984 3.82812 24.5C3.82812 13.1016 13.1016 3.82812 24.5 3.82812C35.8984 3.82812 45.1719 13.1016 45.1719 24.5C45.1719 35.8984 35.8984 45.1719 24.5 45.1719ZM26.4141 22.5841H35.0273V26.4122H26.4141V35.0255H22.5859V26.4122H13.9727V22.5841H22.5859V13.9708H26.4141V22.5841Z" fill="white"/>
</g>
<defs>
<clipPath id="clip0">
<rect width="49" height="49" fill="white"/>
</clipPath>
</defs>
</svg>
