<svg width="28" height="28" viewBox="0 0 28 28" fill="none" xmlns="http://www.w3.org/2000/svg">
<g clip-path="url(#clip0)">
<path d="M19.3749 16.6152C22.736 11.869 21.6119 5.29699 16.8657 1.93669C12.1195 -1.4236 5.54748 -0.300291 2.18718 4.44668C-1.17311 9.19284 -0.0498026 15.7641 4.69717 19.1244C8.08476 21.5228 12.5635 21.7074 16.1366 19.5973L23.9002 27.3143C24.7385 28.1968 26.1332 28.2321 27.0156 27.3938C27.8981 26.5564 27.9334 25.1617 27.0959 24.2792C27.0694 24.2511 27.0437 24.2254 27.0156 24.1989L19.3749 16.6152ZM10.7746 17.3346C7.02408 17.3354 3.98335 14.2971 3.98094 10.5466C3.98014 6.79607 7.01846 3.75535 10.7698 3.75374C14.5155 3.75214 17.5546 6.78564 17.5618 10.5313C17.5683 14.2827 14.5315 17.3282 10.7794 17.3346C10.7778 17.3346 10.777 17.3346 10.7746 17.3346Z" fill="black"/>
</g>
<defs>
<clipPath id="clip0">
<rect width="28" height="28" fill="white"/>
</clipPath>
</defs>
</svg>
