<?xml version="1.0" encoding="iso-8859-1"?>
<!-- Generator: Adobe Illustrator 19.0.0, SVG Export Plug-In . SVG Version: 6.00 Build 0)  -->
<svg xmlns="http://www.w3.org/2000/svg" xmlns:xlink="http://www.w3.org/1999/xlink" version="1.1" id="Layer_1" x="0px" y="0px" viewBox="0 0 495.743 495.743" style="enable-background:new 0 0 495.743 495.743;" xml:space="preserve" width="512" height="512">
<g>
	<path style="fill:#199AFF;" d="M421.993,191.163v289.102c0,8.553-6.933,15.477-15.477,15.477H89.227   c-8.543,0-15.477-6.923-15.477-15.477V191.163H421.993z"/>
	<path style="fill:#2275FF;" d="M247.923,191.163v304.579h158.593c8.543,0,15.477-6.923,15.477-15.477V191.163H247.923z"/>
	<path style="fill:#2275FF;" d="M453.225,176.006v61.793c0,8.553-6.933,15.477-15.477,15.477H57.995   c-8.543,0-15.477-6.923-15.477-15.477v-61.793c0-8.543,6.933-15.477,15.477-15.477h379.754   C446.292,160.53,453.225,167.464,453.225,176.006z"/>
	<path style="fill:#2A51FF;" d="M437.749,160.53H247.923v92.746h189.825c8.543,0,15.477-6.923,15.477-15.477v-61.793   C453.225,167.464,446.292,160.53,437.749,160.53z"/>
	<path style="fill:#FFC43B;" d="M373.662,16.693c-37.05-32.42-95.49-15.24-108.98,32.25l-16.76,58.92l-0.06,0.22l-16.81-59.14   c-13.4-47.12-71.26-63.92-107.26-33.94c-36.08,30.04-33.9,94.09,14.44,116.33l63.51,29.19v335.22h92.26v-335.22l63.49-29.19   C402.722,110.534,410.022,48.493,373.662,16.693z M151.162,103.203c-27.42-12.61-26.26-48.85-7.56-64.42   c18.42-15.35,50.25-7.5,57.68,18.62l22.5,79.19L151.162,103.203z M344.562,103.203l-72.62,33.39l22.5-79.19   c7.44-26.16,39.23-34.57,58.85-17.42C372.242,56.574,370.002,91.503,344.562,103.203z"/>
	<path style="fill:#FFA433;" d="M373.662,16.693c-37.05-32.42-95.49-15.24-108.98,32.25l-16.76,58.92v387.88h46.08v-335.22   l63.49-29.19C402.722,110.534,410.022,48.493,373.662,16.693z M344.562,103.203l-72.62,33.39l22.5-79.19   c7.44-26.16,39.23-34.57,58.85-17.42C372.242,56.574,370.002,91.503,344.562,103.203z"/>
	<rect x="201.742" y="160.534" style="fill:#FFEBBE;" width="92.26" height="335.21"/>
	<path style="fill:#FFD87C;" d="M247.922,160.534v335.21h46.08v-335.21H247.922z"/>
</g>















</svg>
