<svg width="107" height="107" viewBox="0 0 107 107" fill="none" xmlns="http://www.w3.org/2000/svg">
<g clip-path="url(#clip0)">
<path d="M14.4488 50.9764L19.0823 27.809C19.6124 25.1579 23.0406 24.3793 24.6634 26.5431L38.3871 44.8413C40.5655 47.7459 37.8711 48.4233 28.8426 59.5588C16.8822 53.6927 13.6757 54.8436 14.4488 50.9764Z" fill="#FFC34D"/>
<path d="M78.3661 59.5588C69.2868 48.6628 66.3776 47.8213 68.6126 44.8413L82.3363 26.5431C83.9589 24.38 87.3871 25.1571 87.9174 27.809L92.5509 50.9764C93.3569 55.0076 89.4821 53.9888 78.3661 59.5588Z" fill="#FF9933"/>
<path d="M101.989 38.4455L79.5425 55.1414L56.2205 14.3315C55.6208 13.2804 54.5634 12.7539 53.5019 12.7539C52.4425 12.7539 51.381 13.2804 50.7792 14.3315L27.4571 55.1414L5.01068 38.4455C2.64734 36.6881 -0.620791 38.8843 0.10221 41.7345L8.66956 75.4397L14.3407 78.852L10.2618 81.7085L12.8488 91.8849C13.2019 93.2724 14.4536 94.2461 15.887 94.2461H91.1126C92.5461 94.2461 93.7977 93.2724 94.1509 91.8849L96.7378 81.7085L94.247 78.5741L98.3301 75.4397L106.897 41.7345C107.623 38.878 104.348 36.6923 101.989 38.4455Z" fill="#FFEA80"/>
<path d="M106.897 41.7345L98.3301 75.4397L94.247 78.5741L96.7378 81.7085L94.1509 91.8849C93.7977 93.2724 92.546 94.2461 91.1126 94.2461H53.5019V12.7539C54.5634 12.7539 55.6207 13.2804 56.2205 14.3315L79.5425 55.1414L101.989 38.4455C104.348 36.6923 107.623 38.878 106.897 41.7345Z" fill="#FFC34D"/>
<path d="M65.5902 61.289L56.187 45.617C55.5768 44.6014 54.5404 44.0958 53.5019 44.0958C52.4612 44.0958 51.4185 44.6056 50.8126 45.617L41.4094 61.289C40.8138 62.2815 40.8138 63.5228 41.4094 64.5153L50.8126 80.1873C51.4227 81.2029 52.4633 81.7085 53.5019 81.7085C54.5404 81.7065 55.581 81.1966 56.187 80.1873L65.5902 64.5153C66.1857 63.5228 66.1857 62.2815 65.5902 61.289Z" fill="#FF6A4D"/>
<path d="M65.5902 64.5153L56.187 80.1873C55.581 81.1966 54.5404 81.7065 53.5019 81.7085V44.0958C54.5404 44.0958 55.5769 44.6014 56.187 45.617L65.5902 61.289C66.1858 62.2815 66.1858 63.5228 65.5902 64.5153Z" fill="#F03800"/>
<path d="M31.559 78.5741C31.559 80.3043 30.1548 81.7085 28.4246 81.7085H10.2618L8.66956 75.4397H28.4246C30.1548 75.4397 31.559 76.8439 31.559 78.5741Z" fill="#FFC34D"/>
<path d="M98.3301 75.4397L96.7378 81.7085H78.575C76.8448 81.7085 75.4406 80.3043 75.4406 78.5741C75.4406 76.8439 76.8448 75.4397 78.575 75.4397H98.3301Z" fill="#FF9933"/>
</g>
<defs>
<clipPath id="clip0">
<rect width="107" height="107" fill="white"/>
</clipPath>
</defs>
</svg>
