<svg width="24" height="24" viewBox="0 0 24 24" fill="none" xmlns="http://www.w3.org/2000/svg">
<g clip-path="url(#clip0)">
<path d="M11.8173 8.19904L15.2529 11.6346L15.2693 11.4547C15.2693 9.6496 13.8023 8.18268 11.9973 8.18268L11.8173 8.19904Z" fill="black"/>
<path d="M11.9973 6.00138C15.0075 6.00138 17.4506 8.44448 17.4506 11.4547C17.4506 12.1582 17.3088 12.8289 17.0634 13.4451L20.2536 16.6353C21.9005 15.2611 23.1984 13.4833 24 11.4547C22.1077 6.66672 17.4561 3.27475 11.9973 3.27475C10.4704 3.27475 9.00893 3.5474 7.65106 4.0382L10.0069 6.38855C10.623 6.14862 11.2938 6.00138 11.9973 6.00138Z" fill="black"/>
<path d="M1.09064 3.02929L3.57735 5.516L4.07362 6.01227C2.27403 7.41922 0.850716 9.28972 0 11.4547C1.88686 16.2426 6.54397 19.6346 11.9973 19.6346C13.6878 19.6346 15.302 19.3074 16.7799 18.713L17.2434 19.1765L20.4227 22.3612L21.8133 20.9761L2.48124 1.6387L1.09064 3.02929ZM7.12204 9.05521L8.80711 10.7403C8.75803 10.9748 8.72531 11.2093 8.72531 11.4547C8.72531 13.2597 10.1922 14.7266 11.9973 14.7266C12.2427 14.7266 12.4772 14.6939 12.7062 14.6448L14.3913 16.3299C13.666 16.6898 12.8589 16.908 11.9973 16.908C8.98707 16.908 6.54397 14.4649 6.54397 11.4547C6.54397 10.593 6.76212 9.78594 7.12204 9.05521Z" fill="black"/>
</g>
<defs>
<clipPath id="clip0">
<rect width="24" height="24" fill="white"/>
</clipPath>
</defs>
</svg>
