<svg width="21" height="21" viewBox="0 0 21 21" fill="none" xmlns="http://www.w3.org/2000/svg">
<path d="M10.4999 0.0833282C4.77075 0.0833282 0.083252 4.77083 0.083252 10.5C0.083252 16.2292 4.77075 20.9167 10.4999 20.9167C12.3749 20.9167 14.1458 20.3958 15.7083 19.5625C16.2291 19.25 16.3333 18.625 16.1249 18.1042C15.8124 17.5833 15.1874 17.4792 14.6666 17.6875C10.7083 19.9792 5.60409 18.625 3.31242 14.6667C1.02075 10.7083 2.37492 5.60416 6.33325 3.31249C10.2916 1.02083 15.3958 2.375 17.6874 6.33333C18.4166 7.58333 18.8333 9.04166 18.8333 10.5V11.3333C18.8333 12.375 17.9999 13.2083 16.9583 13.2083C15.9166 13.2083 15.0833 12.375 15.0833 11.3333V6.85416C15.0833 6.22916 14.6666 5.8125 14.0416 5.8125C13.5208 5.8125 13.1041 6.125 12.9999 6.64583C10.9166 5.1875 7.89575 5.70833 6.43742 7.79166C4.97909 9.875 5.49992 12.8958 7.58325 14.3542C9.56242 15.7083 12.1666 15.3958 13.7291 13.625C15.0833 15.2917 17.4791 15.6042 19.1458 14.3542C20.0833 13.625 20.7083 12.4792 20.7083 11.2292V10.5C20.9166 4.77083 16.2291 0.0833282 10.4999 0.0833282ZM10.4999 13.1042C9.04159 13.1042 7.89575 11.9583 7.89575 10.5C7.89575 9.04166 9.04159 7.89583 10.4999 7.89583C11.9583 7.89583 13.1041 9.04166 13.1041 10.5C13.1041 11.9583 11.9583 13.1042 10.4999 13.1042Z" fill="black"/>
</svg>
