<svg width="25" height="25" viewBox="0 0 25 25" fill="none" xmlns="http://www.w3.org/2000/svg">
<path d="M21.3542 9.375H19.7917V7.29165C19.7917 3.271 16.5207 0 12.5 0C8.4793 0 5.20835 3.271 5.20835 7.29165V9.375H3.64585C3.35796 9.375 3.125 9.60796 3.125 9.89585V22.9167C3.125 24.0657 4.05933 25 5.20835 25H19.7917C20.9407 25 21.875 24.0657 21.875 22.9167V9.89585C21.875 9.60796 21.642 9.375 21.3542 9.375ZM14.0595 20.255C14.0757 20.402 14.0285 20.5495 13.9298 20.6599C13.8311 20.7703 13.6897 20.8333 13.5417 20.8333H11.4584C11.3104 20.8333 11.1689 20.7703 11.0703 20.6599C10.9716 20.5496 10.9243 20.4021 10.9406 20.255L11.2691 17.3004C10.7356 16.9124 10.4167 16.2984 10.4167 15.625C10.4167 14.476 11.351 13.5417 12.5 13.5417C13.6491 13.5417 14.5834 14.476 14.5834 15.625C14.5834 16.2984 14.2645 16.9124 13.731 17.3004L14.0595 20.255ZM16.6667 9.375H8.33335V7.29165C8.33335 4.99419 10.2025 3.125 12.5 3.125C14.7975 3.125 16.6667 4.99419 16.6667 7.29165V9.375Z" fill="black"/>
</svg>
