<svg width="25" height="25" viewBox="0 0 25 25" fill="none" xmlns="http://www.w3.org/2000/svg">
<g clip-path="url(#clip0)">
<path d="M12.4999 8.47668C10.2801 8.47668 8.47656 10.2802 8.47656 12.5C8.47656 14.7197 10.2801 16.5233 12.4999 16.5233C14.7196 16.5233 16.5232 14.7197 16.5232 12.5C16.5232 10.2802 14.7196 8.47668 12.4999 8.47668ZM12.1947 11.3069C11.6952 11.3069 11.279 11.7231 11.279 12.2225H9.94715C9.9749 10.9739 10.9738 9.97502 12.1947 9.97502V11.3069Z" fill="black"/>
<path d="M24.7087 11.6676C23.3491 9.97504 18.4933 4.4534 12.5 4.4534C6.50666 4.4534 1.65094 9.97504 0.291343 11.6676C-0.0971143 12.1393 -0.0971143 12.833 0.291343 13.3324C1.65094 15.025 6.50666 20.5466 12.5 20.5466C18.4933 20.5466 23.3491 15.025 24.7087 13.3324C25.0971 12.8607 25.0971 12.167 24.7087 11.6676ZM12.5 18.3269C9.28135 18.3269 6.67314 15.7187 6.67314 12.5C6.67314 9.28137 9.28135 6.67316 12.5 6.67316C15.7186 6.67316 18.3269 9.28137 18.3269 12.5C18.3269 15.7187 15.7186 18.3269 12.5 18.3269Z" fill="black"/>
</g>
<defs>
<clipPath id="clip0">
<rect width="25" height="25" fill="white"/>
</clipPath>
</defs>
</svg>
