<svg width="48" height="48" viewBox="0 0 48 48" fill="none" xmlns="http://www.w3.org/2000/svg">
<g clip-path="url(#clip0)">
<path d="M2.39166 24.7388L25.3482 47.6953C25.5442 47.8909 25.81 48.0005 26.087 48L44.8696 48C45.4459 48.0011 45.9139 47.5346 45.9149 46.9583C45.9154 46.6805 45.8051 46.4139 45.6084 46.2177L23.3885 23.9999L45.6084 1.78227C46.0164 1.37532 46.0172 0.7146 45.6102 0.306568C45.414 0.10984 45.1474 -0.000507288 44.8696 -1.89821e-05L26.087 -1.73401e-05C25.81 -0.000505597 25.5442 0.109056 25.3482 0.304708L2.39166 23.2613C1.98363 23.6682 1.98284 24.3289 2.3898 24.737C2.39049 24.7376 2.39107 24.7381 2.39166 24.7388Z" fill="#004B50"/>
</g>
<defs>
<clipPath id="clip0">
<rect width="48" height="48" fill="white" transform="translate(48 48) rotate(180)"/>
</clipPath>
</defs>
</svg>
