<svg width="33" height="33" viewBox="0 0 33 33" fill="none" xmlns="http://www.w3.org/2000/svg">
<g clip-path="url(#clip0)">
<path d="M8.10634 32.5163C10.998 32.5163 13.3422 31.5611 13.3422 30.3827C13.3422 29.2043 10.998 28.249 8.10634 28.249C5.21466 28.249 2.87048 29.2043 2.87048 30.3827C2.87048 31.5611 5.21466 32.5163 8.10634 32.5163Z" fill="#FFDB56"/>
<path d="M12.8854 29.5114C12.0677 30.2555 10.236 30.7741 8.10603 30.7741C5.97605 30.7741 4.14441 30.2555 3.32663 29.5114C3.0342 29.7775 2.8703 30.072 2.8703 30.3824C2.8703 31.5609 5.2144 32.5162 8.1061 32.5162C10.9977 32.5162 13.3419 31.5609 13.3419 30.3824C13.3418 30.072 13.1777 29.7774 12.8854 29.5114Z" fill="#FFBB24"/>
<path d="M8.10607 10.4034C3.90475 10.4034 0.498848 13.8093 0.498848 18.0106C0.498848 24.4085 8.10607 30.2951 8.10607 30.2951C8.10607 30.2951 15.7133 24.4085 15.7133 18.0106C15.7133 13.8093 12.3075 10.4034 8.10607 10.4034ZM8.10607 21.0447C6.43042 21.0447 5.072 19.6863 5.072 18.0106C5.072 16.335 6.43042 14.9765 8.10607 14.9765C9.78173 14.9765 11.1402 16.3349 11.1402 18.0106C11.1402 19.6863 9.78179 21.0447 8.10607 21.0447Z" fill="#FF4A4A"/>
<path d="M8.10604 10.4034C7.81142 10.4034 7.52093 10.4207 7.23502 10.4534C11.026 10.8856 13.9712 14.1039 13.9712 18.0106C13.9712 23.061 9.23178 27.7919 7.23502 29.5612C7.76779 30.0332 8.10604 30.2952 8.10604 30.2952C8.10604 30.2952 15.7133 24.4086 15.7133 18.0108C15.7133 13.8093 12.3074 10.4034 8.10604 10.4034Z" fill="#E7343F"/>
<path d="M26.6539 17.479C28.8764 17.479 30.6781 16.7448 30.6781 15.8391C30.6781 14.9335 28.8764 14.1992 26.6539 14.1992C24.4314 14.1992 22.6298 14.9335 22.6298 15.8391C22.6298 16.7448 24.4314 17.479 26.6539 17.479Z" fill="#FFDB56"/>
<path d="M30.0632 14.9682C29.3513 15.4299 28.0911 15.737 26.6542 15.737C25.2173 15.737 23.9571 15.4299 23.2452 14.9682C22.8561 15.2206 22.6301 15.5191 22.6301 15.8392C22.6301 16.745 24.4317 17.4791 26.6542 17.4791C28.8766 17.4791 30.6783 16.7448 30.6783 15.8392C30.6783 15.5191 30.4524 15.2206 30.0632 14.9682Z" fill="#FFBB24"/>
<path d="M26.6544 0.483917C23.4253 0.483917 20.8077 3.10156 20.8077 6.3306C20.8077 11.2478 26.6544 15.7721 26.6544 15.7721C26.6544 15.7721 32.501 11.2478 32.501 6.3306C32.501 3.10156 29.8834 0.483917 26.6544 0.483917ZM26.6544 8.66252C25.3665 8.66252 24.3224 7.6185 24.3224 6.3306C24.3224 5.0427 25.3665 3.99868 26.6544 3.99868C27.9423 3.99868 28.9863 5.0427 28.9863 6.3306C28.9863 7.6185 27.9423 8.66252 26.6544 8.66252Z" fill="#FF4A4A"/>
<path d="M26.6544 0.483917C26.3584 0.483917 26.0676 0.506089 25.7834 0.548564C28.5992 0.969186 30.759 3.39759 30.759 6.33054C30.759 10.0509 27.4126 13.5458 25.7834 15.0269C26.3075 15.5034 26.6544 15.772 26.6544 15.772C26.6544 15.772 32.501 11.2477 32.501 6.33054C32.501 3.10156 29.8834 0.483917 26.6544 0.483917Z" fill="#E7343F"/>
<path d="M8.10586 9.91949C3.6444 9.91949 0.0147171 13.5492 0.0147171 18.0106C0.0147171 20.7806 1.3324 23.7589 3.93122 26.8627C4.31736 27.3239 4.70214 27.7512 5.0714 28.1411C3.39342 28.5991 2.38602 29.422 2.38602 30.3824C2.38602 32.0826 5.33295 33 8.10566 33C10.8784 33 13.8253 32.0825 13.8253 30.3824C13.8253 29.4227 12.8182 28.5997 11.1413 28.1415C11.8112 27.4342 12.5321 26.6021 13.216 25.674C13.3747 25.4589 13.3287 25.1559 13.1136 24.9974C12.8985 24.839 12.5955 24.8848 12.4369 25.0999C11.6111 26.2206 10.7173 27.2054 9.93736 27.9877C9.84796 28.0333 9.7732 28.1058 9.72634 28.1971C9.02767 28.8837 8.43972 29.3931 8.10618 29.6714C7.77624 29.3958 7.19726 28.8933 6.50754 28.2156C6.45804 28.1072 6.3711 28.0221 6.26501 27.9747C4.07314 25.77 0.982612 21.9611 0.982612 18.0108C0.982612 14.083 4.17814 10.8875 8.10592 10.8875C12.0337 10.8875 15.2292 14.083 15.2292 18.0108C15.2292 19.7261 14.6448 21.5784 13.4921 23.5165C13.3555 23.7463 13.4309 24.0432 13.6606 24.1798C13.8903 24.3164 14.1873 24.2409 14.3239 24.0112C15.5668 21.9214 16.1971 19.9026 16.1971 18.0108C16.197 13.5492 12.5673 9.91949 8.10586 9.91949ZM8.10586 30.779C8.21033 30.779 8.31481 30.7453 8.40202 30.6778C8.46144 30.6319 9.27001 30.0013 10.3479 28.9474C11.9799 29.2802 12.8575 29.9211 12.8575 30.3824C12.8575 30.7269 12.3854 31.1333 11.6253 31.443C10.693 31.823 9.44307 32.0322 8.10566 32.0322C5.20494 32.0322 3.35378 31.055 3.35378 30.3824C3.35378 29.9204 4.23164 29.2799 5.86462 28.9471C6.94853 30.0072 7.75832 30.638 7.80969 30.6778C7.8969 30.7454 8.00144 30.779 8.10586 30.779Z" fill="black"/>
<path d="M5.32282 16.707C5.06604 16.6335 4.79798 16.7818 4.72418 17.0386C4.63388 17.3533 4.58805 17.6803 4.58805 18.0107C4.58805 19.9505 6.16619 21.5287 8.10604 21.5287C10.0459 21.5287 11.624 19.9505 11.624 18.0107C11.624 16.0708 10.0459 14.4926 8.10604 14.4926C7.34066 14.4926 6.61285 14.7343 6.00132 15.1914C5.78733 15.3515 5.7435 15.6547 5.90348 15.8688C6.06358 16.0828 6.36677 16.1265 6.58082 15.9666C7.02367 15.6355 7.5511 15.4605 8.10597 15.4605C9.51221 15.4605 10.6561 16.6045 10.6561 18.0107C10.6561 19.4169 9.51215 20.5609 8.10597 20.5609C6.6998 20.5609 5.55582 19.4169 5.55582 18.0107C5.55582 17.7707 5.58901 17.5335 5.65443 17.3057C5.72816 17.0487 5.57973 16.7807 5.32282 16.707Z" fill="black"/>
<path d="M31.1623 15.8392C31.1623 15.0725 30.4416 14.4339 29.1946 14.0586C29.4409 13.7944 29.6944 13.5098 29.9488 13.206C31.9635 10.7997 32.985 8.48656 32.985 6.33053C32.9849 2.83994 30.1451 0 26.6544 0C24.1045 0 21.8149 1.51762 20.8216 3.86629C20.7174 4.11244 20.8326 4.39642 21.0787 4.50045C21.3248 4.60448 21.6088 4.48943 21.7129 4.24334C22.5545 2.25354 24.4941 0.967766 26.6544 0.967766C29.6115 0.967766 32.0172 3.37355 32.0172 6.3306C32.0172 10.3295 27.8188 14.1606 26.6542 15.1462C26.3976 14.9292 25.9936 14.5743 25.5199 14.11C25.4727 14.0163 25.3963 13.9421 25.3047 13.8961C23.6339 12.2138 21.2917 9.322 21.2917 6.3306C21.2917 6.06331 21.0751 5.84668 20.8077 5.84668C20.5405 5.84668 20.3238 6.06325 20.3238 6.3306C20.3238 8.48656 21.3454 10.7998 23.3601 13.206C23.6144 13.5097 23.8678 13.7942 24.1139 14.0583C22.8664 14.4331 22.1463 15.071 22.1463 15.8393C22.1463 16.4871 22.6719 17.0581 23.6263 17.447C24.4429 17.7798 25.5183 17.9631 26.6544 17.9631C27.7903 17.9631 28.8657 17.7798 29.6824 17.447C30.6367 17.0581 31.1623 16.487 31.1623 15.8392ZM26.6543 16.9952C24.3637 16.9952 23.1141 16.2315 23.1141 15.8391C23.1141 15.5835 23.6825 15.1157 24.8963 14.8576C25.713 15.6523 26.3192 16.1245 26.3583 16.1548C26.4455 16.2223 26.55 16.256 26.6545 16.256C26.759 16.256 26.8634 16.2223 26.9506 16.1548C26.9898 16.1246 27.5958 15.6523 28.4125 14.8578C28.9533 14.9731 29.4217 15.142 29.7495 15.3416C30.0282 15.5114 30.1945 15.6974 30.1945 15.8392C30.1944 16.2315 28.9449 16.9952 26.6543 16.9952Z" fill="black"/>
<path d="M29.4702 6.3306C29.4702 4.77799 28.207 3.51477 26.6544 3.51477C25.1017 3.51477 23.8385 4.77793 23.8385 6.3306C23.8385 7.88322 25.1016 9.14637 26.6544 9.14637C28.2071 9.14637 29.4702 7.88328 29.4702 6.3306ZM24.8063 6.3306C24.8063 5.3116 25.6353 4.48254 26.6544 4.48254C27.6734 4.48254 28.5025 5.31153 28.5025 6.3306C28.5025 7.34955 27.6735 8.17861 26.6544 8.17861C25.6353 8.17861 24.8063 7.34961 24.8063 6.3306Z" fill="black"/>
<path d="M20.3773 16.3231C20.6445 16.3231 20.8612 16.1066 20.8612 15.8392C20.8612 15.5718 20.6445 15.3553 20.3773 15.3553H20.1564C19.9955 15.3553 19.8338 15.3659 19.6757 15.387C19.4108 15.4223 19.2246 15.6655 19.2598 15.9305C19.2922 16.1738 19.5 16.3507 19.7389 16.3507C19.7602 16.3507 19.7817 16.3493 19.8034 16.3464C19.9193 16.331 20.0381 16.3232 20.1564 16.3232H20.3773V16.3231Z" fill="black"/>
<path d="M18.7776 29.8738C18.7768 29.8738 18.7761 29.8738 18.7753 29.8738L18.1362 29.8767C17.869 29.8779 17.6533 30.0956 17.6545 30.3628C17.6557 30.6293 17.8721 30.8445 18.1383 30.8445C18.1391 30.8445 18.1399 30.8445 18.1406 30.8445L18.7797 30.8416C19.0469 30.8404 19.2626 30.6228 19.2614 30.3555C19.2602 30.089 19.0437 29.8738 18.7776 29.8738Z" fill="black"/>
<path d="M20.9515 22.5912C21.2188 22.5912 21.4355 22.3746 21.4355 22.1073C21.4355 21.84 21.2188 21.6234 20.9515 21.6234H20.3124C20.0451 21.6234 19.8285 21.8399 19.8285 22.1073C19.8285 22.3746 20.0451 22.5912 20.3124 22.5912H20.9515Z" fill="black"/>
<path d="M17.3267 17.5402C17.4121 17.6015 17.5108 17.6311 17.6087 17.6311C17.7592 17.6311 17.9075 17.561 18.0021 17.4294C18.1071 17.2831 18.2275 17.147 18.3599 17.0249C18.5563 16.8438 18.5686 16.5376 18.3874 16.3412C18.2063 16.1448 17.9002 16.1325 17.7037 16.3136C17.5233 16.4799 17.3592 16.6654 17.2159 16.8648C17.0601 17.082 17.1097 17.3843 17.3267 17.5402Z" fill="black"/>
<path d="M21.3342 29.8621C21.3334 29.8621 21.3327 29.8621 21.3319 29.8621L20.6929 29.865C20.4256 29.8662 20.21 30.0839 20.2111 30.3511C20.2124 30.6176 20.4287 30.8328 20.695 30.8328C20.6958 30.8328 20.6965 30.8328 20.6972 30.8328L21.3363 30.8299C21.6035 30.8288 21.8192 30.611 21.818 30.3438C21.8169 30.0773 21.6004 29.8621 21.3342 29.8621Z" fill="black"/>
<path d="M16.2209 29.8853C16.2202 29.8853 16.2195 29.8853 16.2187 29.8853L15.5796 29.8882C15.3124 29.8894 15.0967 30.1071 15.0979 30.3744C15.0991 30.6409 15.3154 30.8561 15.5817 30.8561C15.5825 30.8561 15.5832 30.8561 15.584 30.8561L16.2231 30.8532C16.4903 30.852 16.706 30.6343 16.7048 30.3671C16.7036 30.1005 16.4873 29.8853 16.2209 29.8853Z" fill="black"/>
<path d="M18.4863 22.1098C18.6469 22.1098 18.804 22.03 18.8961 21.884C19.0386 21.658 18.971 21.3591 18.7449 21.2165C18.593 21.1206 18.4499 21.0086 18.32 20.8837C18.1273 20.6984 17.8209 20.7046 17.6358 20.897C17.4505 21.0896 17.4565 21.396 17.6491 21.5812C17.8262 21.7515 18.0212 21.9042 18.2287 22.0351C18.3087 22.0857 18.398 22.1098 18.4863 22.1098Z" fill="black"/>
<path d="M17.5553 19.4834C17.5228 19.3166 17.5063 19.145 17.5063 18.9733L17.5065 18.9464C17.5096 18.6792 17.2955 18.46 17.0282 18.4569C17.0264 18.4569 17.0244 18.4569 17.0225 18.4569C16.7579 18.4569 16.5418 18.6698 16.5387 18.9352L16.5385 18.9733C16.5385 19.2071 16.561 19.441 16.6054 19.6685C16.6503 19.8996 16.8529 20.0599 17.0799 20.0599C17.1105 20.0599 17.1417 20.057 17.1729 20.0509C17.4353 19.9998 17.6064 19.7457 17.5553 19.4834Z" fill="black"/>
<path d="M23.5081 22.5912C23.7754 22.5912 23.992 22.3746 23.992 22.1073C23.992 21.84 23.7754 21.6234 23.5081 21.6234H22.869C22.6017 21.6234 22.3851 21.8399 22.3851 22.1073C22.3851 22.3746 22.6017 22.5912 22.869 22.5912H23.5081Z" fill="black"/>
<path d="M30.9772 23.4723C31.1201 23.4723 31.2618 23.4092 31.3573 23.2883C31.5229 23.0785 31.4871 22.7742 31.2774 22.6086C31.0909 22.4614 30.8917 22.3277 30.685 22.2114C30.4523 22.0802 30.157 22.1626 30.0259 22.3955C29.8947 22.6283 29.9771 22.9235 30.21 23.0546C30.3731 23.1465 30.5305 23.252 30.6777 23.3682C30.7665 23.4384 30.8721 23.4723 30.9772 23.4723Z" fill="black"/>
<path d="M28.9356 29.7957C28.7771 29.8176 28.6148 29.8292 28.453 29.8298L28.3624 29.8303C28.0951 29.8316 27.8795 30.0493 27.8808 30.3165C27.8822 30.583 28.0985 30.7981 28.3647 30.7981C28.3655 30.7981 28.3663 30.7981 28.367 30.7981L28.4574 30.7976C28.6618 30.7967 28.8673 30.7822 29.068 30.7545C29.3327 30.7179 29.5177 30.4735 29.4812 30.2089C29.4444 29.9442 29.1998 29.7589 28.9356 29.7957Z" fill="black"/>
<path d="M30.9328 28.8314C30.7971 28.9608 30.65 29.0805 30.4959 29.1874C30.2763 29.3396 30.2217 29.6411 30.3739 29.8609C30.468 29.9964 30.6187 30.0691 30.772 30.0691C30.8672 30.0691 30.9632 30.0411 31.0473 29.9829C31.2424 29.8476 31.4284 29.696 31.6003 29.5322C31.7938 29.3479 31.8012 29.0415 31.6168 28.8481C31.4325 28.6544 31.1262 28.647 30.9328 28.8314Z" fill="black"/>
<path d="M32.5587 26.4978C32.2965 26.4484 32.0431 26.6211 31.9936 26.8838C31.9589 27.0679 31.9095 27.2507 31.8467 27.427C31.757 27.6787 31.8882 27.9555 32.14 28.0453C32.1937 28.0644 32.2486 28.0735 32.3025 28.0735C32.5013 28.0735 32.6877 27.95 32.7583 27.752C32.838 27.5284 32.9007 27.2965 32.9448 27.0629C32.9941 26.8003 32.8213 26.5473 32.5587 26.4978Z" fill="black"/>
<path d="M31.9524 24.0391C31.7103 24.1522 31.6055 24.4401 31.7185 24.6823C31.7978 24.8521 31.8642 25.0295 31.9158 25.2093C31.9767 25.4215 32.1703 25.5598 32.3807 25.5598C32.4249 25.5598 32.4698 25.5537 32.5144 25.5409C32.7713 25.4672 32.9197 25.1991 32.846 24.9423C32.7804 24.7138 32.6962 24.4887 32.5955 24.273C32.4826 24.0309 32.1949 23.9262 31.9524 24.0391Z" fill="black"/>
<path d="M26.0648 22.5912C26.3321 22.5912 26.5487 22.3746 26.5487 22.1073C26.5487 21.84 26.3321 21.6234 26.0648 21.6234H25.4257C25.1584 21.6234 24.9418 21.8399 24.9418 22.1073C24.9418 22.3746 25.1584 22.5912 25.4257 22.5912H26.0648Z" fill="black"/>
<path d="M23.8907 29.8505C23.8899 29.8505 23.8892 29.8505 23.8884 29.8505L23.2493 29.8534C22.9821 29.8546 22.7664 30.0723 22.7676 30.3395C22.7688 30.606 22.9852 30.8212 23.2514 30.8212C23.2522 30.8212 23.2529 30.8212 23.2537 30.8212L23.8928 30.8183C24.16 30.8171 24.3757 30.5994 24.3745 30.3322C24.3734 30.0657 24.1569 29.8505 23.8907 29.8505Z" fill="black"/>
<path d="M28.4367 22.5912C28.4914 22.5912 28.5458 22.5924 28.5999 22.5948C28.6072 22.5952 28.6144 22.5953 28.6217 22.5953C28.879 22.5953 29.0933 22.3925 29.1047 22.1328C29.1165 21.8658 28.9097 21.6398 28.6427 21.6281C28.5742 21.625 28.5049 21.6235 28.4367 21.6235H27.9823C27.715 21.6235 27.4984 21.84 27.4984 22.1074C27.4984 22.3747 27.715 22.5913 27.9823 22.5913L28.4367 22.5912Z" fill="black"/>
<path d="M26.4473 29.839C26.4465 29.839 26.4458 29.839 26.445 29.839L25.8058 29.8419C25.5386 29.843 25.3229 30.0607 25.3241 30.328C25.3253 30.5945 25.5417 30.8097 25.808 30.8097C25.8087 30.8097 25.8094 30.8097 25.8102 30.8097L26.4493 30.8068C26.7166 30.8056 26.9322 30.5879 26.9311 30.3207C26.9299 30.0541 26.7135 29.839 26.4473 29.839Z" fill="black"/>
</g>
<defs>
<clipPath id="clip0">
<rect width="33" height="33" fill="white"/>
</clipPath>
</defs>
</svg>
