<svg width="28" height="28" viewBox="0 0 28 28" fill="none" xmlns="http://www.w3.org/2000/svg">
<g clip-path="url(#clip0)">
<path d="M17.5375 2.10017L26.5055 11.0695C28.0611 12.6254 28.0585 15.3797 26.5046 16.9333L17.5371 25.9001C15.9172 27.5184 13.2922 27.5184 11.6732 25.8996C10.056 24.2793 10.0547 21.6559 11.6741 20.0365L13.5641 18.1474L4.47479 18.1474C2.18499 18.1474 0.328819 16.2908 0.328819 14.0012C0.328819 11.7112 2.18499 9.85589 4.47479 9.85589L13.5658 9.85589L11.6732 7.96311C10.8647 7.15286 10.4598 6.09225 10.4598 5.03142C10.4598 3.97147 10.865 2.90933 11.6741 2.09995C13.2937 0.481416 15.9176 0.481416 17.5375 2.10017Z" fill="white"/>
<path d="M27.6686 13.9477C27.6815 15.0432 27.2948 16.1433 26.5047 16.9331L17.5371 25.8998C15.9173 27.5182 13.2923 27.5182 11.6733 25.8994C10.0561 24.2791 10.0548 21.6557 11.6742 20.0362L13.5641 18.1472L4.47485 18.1472C2.18505 18.1472 0.328874 16.2906 0.328875 14.001C0.328875 13.983 0.331507 13.9657 0.331507 13.9477L27.6686 13.9477Z" fill="#E9F1F4"/>
<path d="M11.6733 7.96289C10.8648 7.15263 10.4599 6.09203 10.4599 5.0312C10.4599 4.31784 10.6477 3.60383 11.0156 2.96632L19.1179 11.0695C20.6726 12.6254 20.6709 15.3797 19.1166 16.9333L11.0156 25.0335C10.1032 23.4485 10.3193 21.3906 11.6741 20.0365L13.5641 18.1474L6.17644 18.1474L4.47482 18.1474C2.18502 18.1474 0.328845 16.2908 0.328845 14.0012C0.328846 11.7112 2.18502 9.85589 4.47482 9.85589L6.17819 9.85589L13.5658 9.85589L11.6733 7.96289Z" fill="#D8E5EA"/>
<path d="M20.2828 13.9999L0.328815 13.9999C0.329254 11.7103 2.18543 9.85567 4.47479 9.85567L6.17816 9.85567L13.5658 9.85567L11.6732 7.96289C10.8647 7.15263 10.4598 6.09203 10.4598 5.0312C10.4598 4.31784 10.6477 3.60383 11.0156 2.96632L19.1179 11.0695C19.8946 11.8467 20.2828 12.9235 20.2828 13.9999Z" fill="#E9F1F4"/>
<path d="M1.31981e-06 14.001C1.42764e-06 11.5341 2.00744 9.52684 4.47481 9.52684L12.772 9.52684L11.4409 8.19527C10.596 7.34862 10.131 6.2251 10.131 5.03098C10.131 3.83599 10.5964 2.71225 11.4418 1.86692C13.1868 0.123645 16.0255 0.123864 17.7701 1.86736L26.7381 10.8369C27.5401 11.6391 28 12.792 28 14.0003C28 14.001 28 14.0016 28 14.0023C27.9996 15.2109 27.5392 16.3638 26.7373 17.1657L17.7697 26.1324C16.0242 27.8764 13.185 27.8761 11.4409 26.132C9.69783 24.3859 9.69871 21.5471 11.4418 19.8039L12.7703 18.476L4.47503 18.476C2.00744 18.476 1.21194e-06 16.4686 1.31981e-06 14.001ZM13.8947 9.85568C13.8947 9.89799 13.8866 9.94073 13.8697 9.98151C13.8188 10.1045 13.6989 10.1845 13.5658 10.1845L4.47481 10.1845C2.37004 10.1845 0.657674 11.8967 0.657674 14.001C0.657674 16.106 2.37026 17.8183 4.47481 17.8183L13.5641 17.8183C13.6969 17.8183 13.8168 17.8986 13.8679 18.0213C13.9192 18.1443 13.8905 18.2857 13.7967 18.3798L11.9067 20.2688C10.42 21.7558 10.4193 24.1776 11.9061 25.6672C13.3937 27.1549 15.8157 27.1551 17.3047 25.6675L26.2723 16.7007C26.9519 16.0211 27.3419 15.0375 27.3423 14.0019C27.3423 14.0014 27.3423 14.0008 27.3423 14.0003C27.3423 12.9649 26.9528 11.9817 26.2732 11.3019L17.3049 2.33277C15.8166 0.845332 13.3948 0.845113 11.9065 2.33211C11.1857 3.05314 10.7885 4.01159 10.7885 5.03098C10.7885 6.0495 11.1855 7.00839 11.9059 7.73051L13.7982 9.62308C13.8611 9.686 13.8947 9.77018 13.8947 9.85568Z" fill="#33363A"/>
<path d="M13.2352 18.1706C13.2352 18.0865 13.2672 18.0023 13.3314 17.9381L15.324 15.9442C15.4524 15.8157 15.6607 15.8157 15.7892 15.9442C15.9176 16.0727 15.9174 16.2809 15.7892 16.4094L13.7964 18.4032C13.6682 18.5317 13.4599 18.5317 13.3314 18.4032C13.2672 18.339 13.2352 18.2546 13.2352 18.1706Z" fill="#33363A"/>
<path d="M13.2352 9.82893C13.2352 9.74475 13.2672 9.66057 13.3315 9.59634C13.4599 9.46809 13.6682 9.46809 13.7964 9.59634L15.7892 11.5897C15.9174 11.7182 15.9174 11.9265 15.7892 12.0549C15.6607 12.1832 15.4525 12.1832 15.324 12.0549L13.3315 10.0615C13.2672 9.9973 13.2352 9.91312 13.2352 9.82893Z" fill="#33363A"/>
<path d="M16.8066 17.8197C14.6966 17.8197 12.9864 16.1093 12.9864 13.9997C12.9864 11.8903 14.6966 10.1799 16.8066 10.1799C18.9157 10.1799 20.6259 11.8901 20.6259 13.9997C20.6259 16.1093 18.9157 17.8197 16.8066 17.8197Z" fill="#FF8F8F"/>
<path d="M16.8066 17.8197C15.1903 17.8197 13.8804 16.1093 13.8804 13.9997C13.8804 11.8903 15.1903 10.1799 16.8066 10.1799C18.4216 10.1799 19.7324 11.8901 19.7324 13.9997C19.7324 16.1093 18.4216 17.8197 16.8066 17.8197Z" fill="#FF1A1A"/>
<path d="M16.8067 10.1799C14.6967 10.1799 12.9865 11.8901 12.9865 13.9997C12.9865 16.1093 14.6967 17.8197 16.8067 17.8197L16.8067 10.1799Z" fill="white"/>
<path d="M13.8805 13.9997C13.8805 16.1093 15.1904 17.8197 16.8067 17.8197L16.8067 10.1799C15.1904 10.1799 13.8805 11.8903 13.8805 13.9997Z" fill="#D8E5EA"/>
<path d="M20.9548 13.9997C20.9548 11.7121 19.094 9.85107 16.8066 9.85107C14.5188 9.85107 12.6576 11.7121 12.6576 13.9997C12.6576 16.2873 14.5188 18.1485 16.8066 18.1485C19.094 18.1485 20.9548 16.2873 20.9548 13.9997ZM20.2971 13.9997C20.2971 15.8135 18.9063 17.3078 17.1354 17.4742L17.1354 10.5254C18.9063 10.692 20.2971 12.1858 20.2971 13.9997ZM13.3152 13.9997C13.3152 12.1858 14.7064 10.6918 16.4778 10.5254L16.4778 17.4742C14.7064 17.3078 13.3152 15.8138 13.3152 13.9997Z" fill="#33363A"/>
<path d="M15.1059 13.9997C15.1059 14.6972 15.6714 15.2626 16.3689 15.2626C17.0664 15.2626 17.6318 14.6972 17.6318 13.9997C17.6318 13.3022 17.0664 12.7367 16.3689 12.7367C15.6714 12.7367 15.1059 13.3022 15.1059 13.9997Z" fill="#A7BBC1"/>
<path d="M15.5351 13.9997C15.5351 14.6972 16.1006 15.2626 16.7981 15.2626C17.4956 15.2626 18.061 14.6972 18.061 13.9997C18.061 13.3022 17.4956 12.7367 16.7981 12.7367C16.1006 12.7367 15.5351 13.3022 15.5351 13.9997Z" fill="white"/>
<path d="M15.905 13.1068C16.3983 12.6135 17.1985 12.6135 17.6913 13.1068C18.1845 13.6002 18.1845 14.3998 17.6913 14.8928" fill="#D8E5EA"/>
<path d="M15.2061 13.9999C15.2061 13.5748 15.3716 13.175 15.6722 12.8742C15.9729 12.5734 16.3728 12.4081 16.7981 12.4081C17.2234 12.4081 17.6233 12.5736 17.9238 12.8742C18.2244 13.175 18.3899 13.5748 18.3899 13.9999C18.3899 14.425 18.2244 14.8246 17.9238 15.1252C17.6233 15.426 17.2236 15.5917 16.7981 15.5917C16.3728 15.5917 15.9729 15.426 15.6724 15.1254C15.3718 14.8248 15.2061 14.4252 15.2061 13.9999ZM17.7324 13.9999C17.7324 13.7504 17.6353 13.5159 17.4586 13.3392C17.2824 13.1627 17.0478 13.0656 16.7981 13.0656C16.5484 13.0656 16.3138 13.1627 16.1374 13.3392C15.9609 13.5156 15.8638 13.7502 15.8638 13.9999C15.8638 14.2496 15.9609 14.4839 16.1374 14.6602C16.3138 14.8369 16.5484 14.934 16.7981 14.934C17.0478 14.934 17.2822 14.8369 17.4586 14.6604C17.4586 14.6604 17.4586 14.6604 17.4586 14.6602C17.6351 14.4839 17.7324 14.2494 17.7324 13.9999Z" fill="#33363A"/>
<path d="M8.62626 15.0425C8.62626 14.9584 8.65827 14.8742 8.72251 14.8099L9.53276 13.9999L8.72251 13.1899C8.59404 13.0614 8.59404 12.8531 8.72251 12.7247C8.85075 12.5962 9.05901 12.5962 9.18748 12.7247L10.2306 13.7673C10.354 13.8907 10.354 14.1091 10.2306 14.2325L9.18748 15.2751C9.05901 15.4034 8.85075 15.4034 8.72251 15.2751C8.65849 15.2107 8.62626 15.1265 8.62626 15.0425Z" fill="#33363A"/>
<path d="M7.31576 13.9997C7.31576 13.818 7.46307 13.6709 7.64459 13.6709L9.99819 13.6709C10.1797 13.6709 10.327 13.818 10.327 13.9997C10.327 14.1814 10.1797 14.3285 9.99819 14.3285L7.64459 14.3285C7.46307 14.3285 7.31576 14.1814 7.31576 13.9997Z" fill="#33363A"/>
<path d="M6.32702 13.9999C6.32702 13.9122 6.3621 13.8289 6.42348 13.7675C6.48465 13.7061 6.57036 13.6711 6.65586 13.6711C6.74355 13.6711 6.82685 13.7061 6.88846 13.7675C7.01122 13.8903 7.01122 14.1095 6.88846 14.2323C6.82707 14.2937 6.74377 14.3287 6.65586 14.3287C6.57036 14.3287 6.48487 14.2937 6.42348 14.2323C6.3621 14.1709 6.32702 14.0852 6.32702 13.9999Z" fill="#33363A"/>
<path d="M5.34057 13.9999C5.34057 13.9122 5.37565 13.8289 5.43703 13.7675C5.4982 13.7061 5.58391 13.6711 5.66941 13.6711C5.7571 13.6711 5.8404 13.7061 5.90201 13.7675C6.02477 13.8903 6.02477 14.1095 5.90201 14.2323C5.84062 14.2937 5.75732 14.3287 5.66941 14.3287C5.58391 14.3287 5.49842 14.2937 5.43703 14.2323C5.37565 14.1709 5.34057 14.0852 5.34057 13.9999Z" fill="#33363A"/>
<path d="M4.354 13.9999C4.354 13.9144 4.38908 13.8289 4.45046 13.7675C4.51162 13.7061 4.59515 13.6711 4.68284 13.6711C4.77053 13.6711 4.85383 13.7061 4.91543 13.7675C5.0382 13.8903 5.0382 14.1117 4.91543 14.2323C4.85405 14.2937 4.77075 14.3287 4.68284 14.3287C4.59734 14.3287 4.51184 14.2937 4.45046 14.2323C4.38908 14.1709 4.354 14.0876 4.354 13.9999Z" fill="#33363A"/>
<path d="M4.83325 6.90798L5.87632 5.86535C5.87632 5.86535 5.87632 5.86513 5.87654 5.86513C5.93595 5.80572 5.97278 5.72351 5.97278 5.63275C5.97278 5.54199 5.93595 5.46 5.87654 5.40037C5.87654 5.40037 5.87654 5.40015 5.87632 5.40015L4.83325 4.35752C4.70478 4.22928 4.49652 4.22928 4.36828 4.35752C4.23981 4.48599 4.23981 4.69425 4.36828 4.82272L4.84969 5.30391L3.29013 5.30391C3.10861 5.30391 2.96129 5.45101 2.96129 5.63275C2.96129 5.81449 3.10861 5.96159 3.29013 5.96159L4.84969 5.96159L4.36828 6.44279C4.30404 6.50702 4.27204 6.5912 4.27204 6.67538C4.27204 6.75957 4.30404 6.84375 4.36828 6.90798C4.49652 7.03645 4.70478 7.03645 4.83325 6.90798Z" fill="#33363A"/>
<path d="M2.53451 5.39971C2.47313 5.33833 2.38763 5.30325 2.30214 5.30325C2.21642 5.30325 2.13114 5.33833 2.06954 5.39971C2.00816 5.46109 1.9733 5.54659 1.9733 5.63209C1.9733 5.71978 2.00816 5.80309 2.06954 5.86666C2.13092 5.92585 2.21642 5.96093 2.30214 5.96093C2.38763 5.96093 2.47291 5.92585 2.53451 5.86447C2.65728 5.74148 2.65728 5.52226 2.53451 5.39971Z" fill="#33363A"/>
<path d="M1.54794 5.39971C1.48656 5.33833 1.40106 5.30325 1.31556 5.30325C1.22984 5.30325 1.14457 5.33833 1.08296 5.39971C1.02158 5.46109 0.986723 5.54659 0.986723 5.63209C0.986723 5.71978 1.02158 5.80309 1.08296 5.86447C1.14435 5.92585 1.22984 5.96093 1.31556 5.96093C1.40106 5.96093 1.48634 5.92585 1.54794 5.86447C1.67071 5.74148 1.67071 5.52226 1.54794 5.39971Z" fill="#33363A"/>
<path d="M0.561368 5.39971C0.499986 5.33833 0.414489 5.30325 0.328992 5.30325C0.243275 5.30325 0.157998 5.33833 0.0963962 5.39971C0.0350136 5.46109 0.000156392 5.54659 0.000156388 5.63209C0.000156384 5.71759 0.0350136 5.80309 0.0963962 5.86666C0.157779 5.92585 0.243275 5.96093 0.328992 5.96093C0.414489 5.96093 0.499767 5.92585 0.561368 5.86447C0.684134 5.74148 0.684134 5.52226 0.561368 5.39971Z" fill="#33363A"/>
<path d="M4.83325 23.6423L5.87632 22.5996C5.87632 22.5996 5.87632 22.5994 5.87654 22.5994C5.93595 22.54 5.97278 22.4578 5.97278 22.367C5.97278 22.2763 5.93595 22.1943 5.87654 22.1347C5.87654 22.1347 5.87654 22.1344 5.87632 22.1344L4.83325 21.0918C4.70478 20.9636 4.49652 20.9636 4.36828 21.0918C4.23981 21.2203 4.23981 21.4285 4.36828 21.557L4.84969 22.0382L3.29013 22.0382C3.10861 22.0382 2.9613 22.1853 2.9613 22.367C2.9613 22.5488 3.10861 22.6959 3.29013 22.6959L4.84969 22.6959L4.36828 23.1771C4.30404 23.2413 4.27204 23.3255 4.27204 23.4097C4.27204 23.4938 4.30404 23.578 4.36828 23.6423C4.49652 23.7705 4.70478 23.7705 4.83325 23.6423Z" fill="#33363A"/>
<path d="M2.53451 22.1329C2.47313 22.0737 2.38763 22.0386 2.30214 22.0386C2.21642 22.0386 2.13114 22.0737 2.06954 22.1351C2.00816 22.1965 1.9733 22.2798 1.9733 22.3675C1.9733 22.453 2.00816 22.5385 2.06954 22.5999C2.13092 22.6612 2.21642 22.6963 2.30214 22.6963C2.38763 22.6963 2.47291 22.6612 2.53451 22.5999C2.65728 22.4773 2.65728 22.2581 2.53451 22.1329Z" fill="#33363A"/>
<path d="M1.54794 22.1353C1.48656 22.0739 1.40106 22.0388 1.31556 22.0388C1.22985 22.0388 1.14457 22.0739 1.08297 22.1353C1.02158 22.1967 0.986725 22.28 0.986725 22.3677C0.986725 22.4532 1.02158 22.5387 1.08297 22.6001C1.14435 22.6614 1.22985 22.6965 1.31556 22.6965C1.40106 22.6965 1.48634 22.6614 1.54794 22.6001C1.67071 22.4773 1.67071 22.2557 1.54794 22.1353Z" fill="#33363A"/>
<path d="M0.561368 22.1329C0.499985 22.0737 0.414488 22.0386 0.328991 22.0386C0.243274 22.0386 0.157997 22.0737 0.0963946 22.1351C0.0350118 22.1965 0.000154485 22.2798 0.000154481 22.3675C0.000154477 22.453 0.0350117 22.5385 0.0963946 22.5998C0.157777 22.6612 0.243274 22.6963 0.328991 22.6963C0.414488 22.6963 0.499766 22.6612 0.561368 22.5998C0.684134 22.4773 0.684134 22.2581 0.561368 22.1329Z" fill="#33363A"/>
</g>
<defs>
<clipPath id="clip0">
<rect width="28" height="28" fill="white" transform="translate(28) rotate(90)"/>
</clipPath>
</defs>
</svg>
